# xmcd
#
# Track frame offsets: 
#        150
#        13845
#        23197
#        34295
#        45552
#        56022
#        69115
#        82265
#        93785
#
# Disc length: 1398 seconds
#
# Revision: 0
# Processed by: cddbd v1.4PL0 Copyright (c) Steve Scherf et al.
# Submitted via: ExactAudioCopy v0.90b4
#
DISCID=6d057409
DTITLE=George Jones - The Best Of George Jones (King Records)
DYEAR=1900
DGENRE=Country
TTITLE0=A Good Year For The Roses
TTITLE1=The Race Is On
TTITLE2=Life Turned Her That Way
TTITLE3=Swingin' Doors
TTITLE4=Don't You Ever Get Tired Of Hurting Me
TTITLE5=I Threw Away The Rose
TTITLE6=Hello Darlin'
TTITLE7=Fightin' Side Of Me
TTITLE8=Apartment No. 9
EXTD=
EXTT0=
EXTT1=
EXTT2=
EXTT3=
EXTT4=
EXTT5=
EXTT6=
EXTT7=
EXTT8=
PLAYORDER=
